<svg xmlns="http://www.w3.org/2000/svg" xmlns:xlink="http://www.w3.org/1999/xlink" width="500" zoomAndPan="magnify" viewBox="0 0 375 374.999991" height="500" preserveAspectRatio="xMidYMid meet" version="1.0"><defs><clipPath id="da3232b6ed"><path d="M 180 219 L 289 219 L 289 374.695312 L 180 374.695312 Z M 180 219 " clip-rule="nonzero"/></clipPath></defs><rect x="-37.5" width="450" fill="#ffffff" y="-37.499999" height="449.999989" fill-opacity="1"/><rect x="-37.5" width="450" fill="#fffefc" y="-37.499999" height="449.999989" fill-opacity="1"/><path fill="#1c5d99" d="M 343.28125 120.34375 C 338.210938 112.402344 329.992188 116.097656 302.058594 108.019531 C 294.503906 105.832031 285.753906 104.046875 280.230469 98.050781 C 275.410156 92.820312 273.0625 85.308594 269.742188 79.394531 C 259.195312 60.636719 222.632812 54.199219 222.632812 54.199219 C 222.632812 54.199219 218.933594 80.21875 218.933594 80.21875 C 217.496094 90.332031 210.257812 110.761719 199.75 115.351562 C 203.292969 106.433594 208.042969 98.644531 208.9375 88.710938 C 208.945312 88.613281 211.824219 56.777344 218.113281 42.007812 C 231.332031 10.976562 180.898438 27.742188 169.757812 33.976562 C 156.414062 41.441406 138.539062 58.15625 154.339844 73.375 C 158.320312 77.210938 169.0625 85.445312 175.019531 83.878906 C 163.589844 86.878906 145.078125 83.394531 140.957031 70.769531 C 141.34375 71.957031 126.730469 86.609375 125.15625 88.679688 C 120.132812 95.277344 115.617188 102.257812 111.65625 109.539062 C 108.160156 115.96875 104.417969 122.925781 102.109375 129.871094 C 99.453125 137.84375 99 146.242188 93.738281 153.195312 C 88.4375 160.203125 83.242188 167.132812 78.800781 174.738281 C 60.714844 205.710938 52.363281 238.140625 61.296875 273.425781 C 67.199219 296.730469 78.972656 318.546875 95.6875 335.875 C 103.78125 344.261719 112.96875 351.285156 122.84375 357.371094 C 128.328125 360.75 134.1875 363.210938 140.269531 365.289062 C 145.425781 367.050781 153.058594 367.773438 157.589844 370.734375 C 108.71875 338.800781 69.582031 289.039062 81.4375 227.84375 C 89.929688 184.023438 112.25 165.949219 112.25 165.945312 C 110.535156 167.335938 112.09375 181.253906 112.355469 183.664062 C 113.066406 190.199219 115.476562 199.601562 121.40625 203.273438 C 118.59375 191.414062 115.628906 179.671875 117.882812 167.453125 C 120.160156 155.097656 126.140625 143.59375 133.183594 133.308594 C 141.171875 121.636719 153.121094 113.515625 163.828125 127.683594 C 165.398438 129.761719 173.921875 148.699219 174.394531 148.695312 C 180.226562 148.636719 187.269531 153.058594 192.980469 151.316406 C 202.464844 148.429688 210.472656 135.445312 218.675781 129.90625 C 222.171875 127.542969 226.441406 126.253906 223.480469 132.636719 C 219.996094 140.136719 213.136719 147.480469 210.460938 155.058594 C 208.617188 160.28125 210.703125 159.453125 215.863281 162.292969 C 219.78125 164.445312 223.597656 166.808594 226.972656 169.761719 C 237.875 179.308594 236.671875 203.8125 250.570312 209.261719 C 248.96875 195.683594 254.605469 181.472656 268.066406 176.527344 C 288.574219 169 309.871094 181.308594 326.648438 162.386719 C 334.019531 154.074219 333.886719 144.40625 338.742188 135.125 C 340.820312 131.152344 346.328125 125.125 343.28125 120.34375 Z M 251.800781 111.441406 C 247.566406 111.441406 244.128906 106.78125 244.128906 101.035156 C 244.128906 95.285156 247.5625 90.625 251.800781 90.625 C 256.035156 90.625 259.46875 95.285156 259.46875 101.035156 C 259.46875 106.78125 256.035156 111.441406 251.800781 111.441406 Z M 251.800781 111.441406 " fill-opacity="1" fill-rule="nonzero"/><path fill="#1c5d99" d="M 151.007812 201.824219 C 132.585938 185.054688 130.914062 154.039062 145.835938 134.144531 C 152.351562 125.460938 159.671875 131.417969 162.511719 140.476562 C 165.71875 150.6875 171.570312 159.175781 178.5 167.019531 C 177.382812 165.757812 165.039062 173.792969 163.402344 175.050781 C 158.558594 178.769531 154.839844 183.382812 152.773438 189.183594 C 152.042969 191.234375 148.652344 199.679688 151.007812 201.824219 Z M 151.007812 201.824219 " fill-opacity="1" fill-rule="nonzero"/><path fill="#1c5d99" d="M 195.105469 193.335938 C 197.523438 194.027344 205.484375 188.097656 209.21875 188.222656 C 219.789062 188.570312 222.523438 203.515625 227.949219 210.035156 C 224.179688 209.816406 219.625 210.75 215.941406 209.824219 C 205.929688 207.300781 203.886719 195.84375 195.105469 193.335938 Z M 195.105469 193.335938 " fill-opacity="1" fill-rule="nonzero"/><path fill="#1c5d99" d="M 161.550781 225.980469 C 165.183594 221.570312 184.203125 221.527344 189.621094 221.339844 C 199.667969 220.996094 209.199219 222.597656 218.675781 225.855469 C 217.734375 222.871094 213.820312 220.054688 210.835938 218.445312 C 197.742188 211.375 171.433594 213.976562 161.550781 225.980469 Z M 161.550781 225.980469 " fill-opacity="1" fill-rule="nonzero"/><path fill="#1c5d99" d="M 169.378906 239.203125 C 183.816406 228.851562 205.230469 224.597656 221.96875 231.546875 C 215.839844 230.636719 209.84375 232.578125 203.785156 233.164062 C 192.128906 234.289062 180.757812 237.84375 169.378906 239.203125 Z M 169.378906 239.203125 " fill-opacity="1" fill-rule="nonzero"/><path fill="#1c5d99" d="M 226.796875 236.953125 C 219.351562 235.015625 211.019531 237.257812 204.128906 240.148438 C 200.136719 241.824219 196.324219 243.910156 192.726562 246.316406 C 190.441406 247.84375 186.136719 252.984375 183.664062 253.488281 C 190.84375 252.027344 197.886719 247.257812 204.707031 244.523438 C 211.949219 241.617188 219.277344 239.039062 226.796875 236.953125 Z M 226.796875 236.953125 " fill-opacity="1" fill-rule="nonzero"/><path fill="#1c5d99" d="M 284.667969 228.316406 C 284.667969 228.316406 269.054688 229.683594 261.660156 234.105469 C 261.660156 234.105469 256.183594 223.855469 284.667969 228.316406 Z M 284.667969 228.316406 " fill-opacity="1" fill-rule="nonzero"/><path fill="#1c5d99" d="M 261.238281 241.265625 L 261.238281 237.15625 C 261.238281 237.15625 280.285156 236.335938 284.667969 242.910156 C 284.667969 242.910156 273.140625 238.800781 261.238281 241.265625 Z M 261.238281 241.265625 " fill-opacity="1" fill-rule="nonzero"/><path fill="#1c5d99" d="M 261.238281 245.230469 C 261.238281 245.230469 274.257812 250.03125 276.449219 255.507812 C 276.449219 255.507812 263.851562 248.386719 258.921875 249.210938 Z M 261.238281 245.230469 " fill-opacity="1" fill-rule="nonzero"/><g clip-path="url(#da3232b6ed)"><path fill="#1c5d99" d="M 248.515625 230.648438 C 248.65625 228.371094 240.074219 227.097656 242.628906 221.957031 C 243.476562 220.242188 245.636719 219.730469 247.53125 219.464844 C 250.316406 219.070312 253.246094 218.800781 255.867188 219.824219 C 256.402344 220.03125 256.925781 220.300781 257.324219 220.714844 C 257.761719 221.175781 258.015625 221.78125 258.175781 222.398438 C 259.320312 226.820312 254.816406 230.789062 254.613281 235.320312 C 254.203125 244.375 250.066406 250 246.417969 258.035156 C 231.828125 290.199219 243.628906 332.601562 267.113281 357.484375 C 273.476562 364.230469 280.757812 369.886719 288.496094 374.964844 C 284.089844 373.683594 279.675781 374.410156 275.25 373.507812 C 243.039062 366.949219 210.378906 348.996094 191.714844 321.328125 C 185.808594 312.574219 181.175781 302.277344 180.476562 291.628906 C 179.921875 283.214844 182.664062 274.820312 189.007812 269.070312 C 196.367188 262.402344 206.628906 262.117188 216.019531 262.570312 C 225.628906 263.035156 234.652344 260.941406 241.699219 253.84375 C 248.332031 247.171875 247.976562 239.382812 248.515625 230.648438 Z M 248.515625 230.648438 " fill-opacity="1" fill-rule="nonzero"/></g></svg>